<svg width="11" height="6" viewBox="0 0 11 6" fill="none" xmlns="http://www.w3.org/2000/svg">
<path d="M1.12463 0.638791C1.25356 0.509904 1.42839 0.4375 1.61069 0.4375C1.79299 0.4375 1.96783 0.509904 2.09676 0.638791L5.49988 4.04192L8.90301 0.638791C9.03267 0.513557 9.20633 0.444261 9.38659 0.445827C9.56685 0.447394 9.73929 0.519697 9.86676 0.647165C9.99422 0.774633 10.0665 0.947067 10.0681 1.12733C10.0697 1.30759 10.0004 1.48125 9.87513 1.61092L5.98594 5.5001C5.85702 5.62899 5.68218 5.70139 5.49988 5.70139C5.31758 5.70139 5.14274 5.62899 5.01382 5.5001L1.12463 1.61092C0.995744 1.48199 0.92334 1.30715 0.92334 1.12485C0.92334 0.942553 0.995744 0.767716 1.12463 0.638791V0.638791Z" fill="#2BB9A9"/>
</svg>
