<svg width="19" height="17" viewBox="0 0 19 17" fill="none" xmlns="http://www.w3.org/2000/svg">
<path d="M10.5586 0.0585105C8.95725 0.0585105 7.39874 0.509115 6.05142 1.36158C4.74126 2.19056 3.68458 3.36151 2.99561 4.74777L4.31028 5.40117C5.49805 3.01122 7.89231 1.5266 10.5586 1.5266C14.4038 1.5266 17.532 4.65484 17.532 8.5C17.532 12.3452 14.4038 15.4734 10.5586 15.4734C7.89231 15.4734 5.49805 13.9888 4.31028 11.5988L2.99561 12.2522C3.68458 13.6385 4.74126 14.8094 6.05142 15.6384C7.39874 16.4909 8.95725 16.9415 10.5586 16.9415C15.2133 16.9415 19.0001 13.1547 19.0001 8.5C19.0001 3.84534 15.2133 0.0585105 10.5586 0.0585105Z" fill="white"/>
<path d="M8.90268 10.4281L9.69276 11.0968L12.3226 8.87097L9.69276 6.64516L8.90268 7.31386L10.1837 8.3981H0.45166V9.34383H10.1837L8.90268 10.4281Z" fill="white"/>
</svg>
