<svg width="28" height="34" viewBox="0 0 28 34" fill="none" xmlns="http://www.w3.org/2000/svg">
<path d="M27.6 29.3902L25.6532 7.46748C25.6115 6.98078 25.2012 6.61227 24.7215 6.61227H20.7166C20.661 2.95501 17.6712 0 14 0C10.3289 0 7.33908 2.95501 7.28345 6.61227H3.27855C2.79184 6.61227 2.38857 6.98078 2.34685 7.46748L0.40002 29.3902C0.40002 29.418 0.393066 29.4458 0.393066 29.4736C0.393066 31.9697 2.68059 34 5.49654 34H22.5035C25.3194 34 27.607 31.9697 27.607 29.4736C27.607 29.4458 27.607 29.418 27.6 29.3902ZM14 1.8773C16.6352 1.8773 18.7837 3.991 18.8393 6.61227H9.16076C9.21638 3.991 11.3648 1.8773 14 1.8773ZM22.5035 32.1227H5.49654C3.73049 32.1227 2.29818 30.9546 2.27037 29.5153L4.13376 8.49652H7.2765V11.3472C7.2765 11.8687 7.69368 12.2859 8.21515 12.2859C8.73662 12.2859 9.1538 11.8687 9.1538 11.3472V8.49652H18.8393V11.3472C18.8393 11.8687 19.2565 12.2859 19.7779 12.2859C20.2994 12.2859 20.7166 11.8687 20.7166 11.3472V8.49652H23.8593L25.7297 29.5153C25.7019 30.9546 24.2626 32.1227 22.5035 32.1227Z" fill="#2BB9A9"/>
</svg>
